<mxfile host="65bd71144e">
    <diagram id="LXvhZH188yyETzz4Nycu" name="Page-1">
        <mxGraphModel dx="997" dy="847" grid="1" gridSize="10" guides="1" tooltips="1" connect="1" arrows="1" fold="1" page="1" pageScale="1" pageWidth="850" pageHeight="1100" math="0" shadow="0">
            <root>
                <mxCell id="0"/>
                <mxCell id="1" parent="0"/>
                <mxCell id="2" value="" style="ellipse;shape=cloud;whiteSpace=wrap;html=1;fillColor=#fff2cc;strokeColor=#d6b656;fillStyle=dots;" parent="1" vertex="1">
                    <mxGeometry x="15" y="140" width="820" height="460" as="geometry"/>
                </mxCell>
                <mxCell id="3" value="" style="ellipse;shape=cloud;whiteSpace=wrap;html=1;fillColor=#d5e8d4;strokeColor=#82b366;" parent="1" vertex="1">
                    <mxGeometry x="70" y="180" width="710" height="370" as="geometry"/>
                </mxCell>
                <mxCell id="7" value="" style="ellipse;shape=cloud;whiteSpace=wrap;html=1;strokeWidth=3;dashed=1;fillColor=none;" vertex="1" parent="1">
                    <mxGeometry x="150" y="230" width="570" height="250" as="geometry"/>
                </mxCell>
                <mxCell id="4" value="Негибкая система типов" style="ellipse;whiteSpace=wrap;html=1;fillColor=#f8cecc;strokeColor=#b85450;fontSize=20;fontStyle=1" parent="1" vertex="1">
                    <mxGeometry x="275" y="305" width="355" height="110" as="geometry"/>
                </mxCell>
                <mxCell id="5" value="Гибкая система типов" style="text;html=1;align=center;verticalAlign=middle;whiteSpace=wrap;rounded=0;fontSize=20;fontStyle=1" parent="1" vertex="1">
                    <mxGeometry x="320" y="480" width="310" height="30" as="geometry"/>
                </mxCell>
                <mxCell id="6" value="Семантика" style="text;html=1;align=center;verticalAlign=middle;whiteSpace=wrap;rounded=0;fontSize=20;fontStyle=1" parent="1" vertex="1">
                    <mxGeometry x="310" y="530" width="210" height="30" as="geometry"/>
                </mxCell>
                <mxCell id="8" value="Граница полноты по Тьюрингу" style="text;html=1;align=center;verticalAlign=middle;whiteSpace=wrap;rounded=0;fontSize=20;fontStyle=1" vertex="1" parent="1">
                    <mxGeometry x="60" y="170" width="160" height="70" as="geometry"/>
                </mxCell>
                <mxCell id="9" value="" style="endArrow=none;html=1;exitX=0.07;exitY=0.4;exitDx=0;exitDy=0;exitPerimeter=0;strokeWidth=3;" edge="1" parent="1" source="7" target="8">
                    <mxGeometry width="50" height="50" relative="1" as="geometry">
                        <mxPoint x="400" y="460" as="sourcePoint"/>
                        <mxPoint x="450" y="410" as="targetPoint"/>
                    </mxGeometry>
                </mxCell>
            </root>
        </mxGraphModel>
    </diagram>
</mxfile>